<?xml version="1.0" encoding="UTF-8"?>
<svg xmlns="http://www.w3.org/2000/svg" viewBox="0 0 231 301">
  <g id="Lager_1" data-name="Lager 1">
    <rect x=".5" y=".5" width="230" height="300" rx="42.83" ry="42.83" style="fill: #fafae9; stroke: #1d1d1b; stroke-miterlimit: 10;"/>
  </g>
  <g id="Lager_3" data-name="Lager 3">
    <path d="M113.76,155.56c-3.63,1.47-7.05,3.98-8.18,7.92-1.01,3.52.28,7.9,3.59,9.75,1.56.87,3.49.87,4.92,1.92,1.04.76,1.8,1.96,2.25,3.16.57,1.5.79,3.09.75,4.69-.02.7.08,1.09-.28,1.32-.81.52-1.89.78-2.78,1.13-2.45.97-4.91,1.92-7.35,2.91s-4.24,2.27-4.45,4.97c-.11,1.35,1.22,2.5,2.5,2.5,1.44,0,2.39-1.15,2.5-2.5-.04.46-.28.33.01.28.23-.04.54-.32.76-.42,1.01-.47,2.09-.83,3.13-1.24,2-.79,4.01-1.59,6.01-2.38s3.8-1.52,4.53-3.64c.57-1.63.5-3.61.3-5.3-.4-3.29-1.64-6.68-4.22-8.9-1.4-1.21-2.95-1.89-4.72-2.36-1.34-.36-2.19-.81-2.61-2.16-.97-3.1,1.98-5.72,4.67-6.8,1.25-.51,2.13-1.67,1.75-3.08-.33-1.19-1.82-2.26-3.08-1.75h0Z" style="fill: #184922; stroke-width: 0px;"/>
    <polygon points="112.16 138.82 122.45 159.09 101.87 159.09 112.16 138.82" style="fill: #9d4996; stroke: #2b2e72; stroke-miterlimit: 10; stroke-width: 3px;"/>
    <ellipse cx="114.53" cy="108.14" rx="36" ry="40.59" style="fill: #9d4996; stroke: #293070; stroke-miterlimit: 10; stroke-width: 3px;"/>
    <text transform="translate(75.13 236.79)" style="fill: #1d1d1b; font-family: RowdyHeavy, RowdyHeavy; font-size: 20px;"><tspan x="0" y="0">Ballong</tspan></text>
  </g>
</svg>