<?xml version="1.0" encoding="UTF-8"?>
<svg xmlns="http://www.w3.org/2000/svg" viewBox="0 0 231 301">
  <g id="Lager_1" data-name="Lager 1">
    <rect x=".5" y=".5" width="230" height="300" rx="42.83" ry="42.83" style="fill: #fafae9; stroke: #1d1d1b; stroke-miterlimit: 10;"/>
  </g>
  <g id="Lager_3" data-name="Lager 3">
    <text transform="translate(96.34 236.79)" style="fill: #1d1d1b; font-family: RowdyHeavy, RowdyHeavy; font-size: 20px;"><tspan x="0" y="0">Löv</tspan></text>
    <rect x="83.12" y="155.11" width="9.09" height="29.6" rx="3.9" ry="3.9" transform="translate(91.86 361.06) rotate(-153.97)" style="fill: #1ca638; stroke: #a1c96c; stroke-miterlimit: 10; stroke-width: 3px;"/>
    <path d="M142.51,128.17c-13.58,23.94-34.65,39.38-53.91,41.75-7.15-17.48-4.05-43.63,9.78-68.01s33.34-39.42,51.54-43c8.75,17.75,6.57,44.61-7.41,69.26Z" style="fill: #1ca638; stroke: #a1c96c; stroke-miterlimit: 10; stroke-width: 3px;"/>
    <line x1="142.74" y1="72.3" x2="95.04" y2="158.98" style="fill: none; stroke: #a1c96c; stroke-miterlimit: 10; stroke-width: 3px;"/>
    <line x1="128.06" y1="77.35" x2="133.12" y2="89.78" style="fill: none; stroke: #a1c96c; stroke-miterlimit: 10; stroke-width: 3px;"/>
    <line x1="149.16" y1="89.73" x2="133.12" y2="89.78" style="fill: none; stroke: #a1c96c; stroke-miterlimit: 10; stroke-width: 3px;"/>
    <line x1="118.89" y1="89.96" x2="125.9" y2="102.89" style="fill: none; stroke: #a1c96c; stroke-miterlimit: 10; stroke-width: 3px;"/>
    <line x1="142.28" y1="105.32" x2="125.9" y2="102.89" style="fill: none; stroke: #a1c96c; stroke-miterlimit: 10; stroke-width: 3px;"/>
    <line x1="111.09" y1="99.82" x2="118.89" y2="114.41" style="fill: none; stroke: #a1c96c; stroke-miterlimit: 10; stroke-width: 3px;"/>
    <line x1="136.78" y1="115.64" x2="118.89" y2="114.41" style="fill: none; stroke: #a1c96c; stroke-miterlimit: 10; stroke-width: 3px;"/>
    <line x1="103.3" y1="110.82" x2="113.51" y2="125.41" style="fill: none; stroke: #a1c96c; stroke-miterlimit: 10; stroke-width: 3px;"/>
    <line x1="130.87" y1="128.71" x2="113.51" y2="125.41" style="fill: none; stroke: #a1c96c; stroke-miterlimit: 10; stroke-width: 3px;"/>
    <line x1="98.97" y1="121.37" x2="106.05" y2="134.67" style="fill: none; stroke: #a1c96c; stroke-miterlimit: 10; stroke-width: 3px;"/>
    <line x1="124.85" y1="140.17" x2="106.05" y2="134.67" style="fill: none; stroke: #a1c96c; stroke-miterlimit: 10; stroke-width: 3px;"/>
    <line x1="93.21" y1="137.42" x2="100.69" y2="148.72" style="fill: none; stroke: #a1c96c; stroke-miterlimit: 10; stroke-width: 3px;"/>
    <line x1="115.5" y1="150.5" x2="100.69" y2="148.72" style="fill: none; stroke: #a1c96c; stroke-miterlimit: 10; stroke-width: 3px;"/>
  </g>
</svg>