<?xml version="1.0" encoding="UTF-8"?>
<svg id="Lager_2" data-name="Lager 2" xmlns="http://www.w3.org/2000/svg" viewBox="0 0 257.53 146.92">
  <path d="M255.03,89.32c0,28.59-29.68,51.76-66.3,51.76-10.62,0-20.65-1.95-29.55-5.42-8.62,5.5-19.42,8.76-31.15,8.76-13.88,0-26.47-4.57-35.67-12.02-9,4.8-19.61,7.57-30.98,7.57-32.52,0-58.88-22.67-58.88-50.65s26.36-50.65,58.88-50.65c1.87,0,3.73.08,5.55.23v-.23c0-19.98,19.9-36.17,44.43-36.17,14.99,0,28.24,6.04,36.29,15.28,4.27-3.14,9.54-4.99,15.23-4.99,13.89,0,25.23,10.99,25.8,24.76h.03c36.61,0,66.3,23.18,66.3,51.76Z" style="fill: #fbfbfb; stroke: #1d1d1b; stroke-miterlimit: 10; stroke-width: 5px;"/>
</svg>